<?xml version="1.0" standalone="no"?> <!DOCTYPE svg PUBLIC "-//W3C//DTD SVG 20010904//EN" "http://www.w3.org/TR/2001/REC-SVG-20010904/DTD/svg10.dtd"> <svg version="1.0" xmlns="http://www.w3.org/2000/svg" width="600.000000pt" height="600.000000pt" viewBox="0 0 600.000000 600.000000" preserveAspectRatio="xMidYMid meet"> <g transform="translate(0.000000,600.000000) scale(0.100000,-0.100000)" fill="#2cc92f" stroke="none"> <path d="M2026 4174 c-11 -7 -16 -14 -11 -14 5 0 4 -5 -3 -12 -9 -9 -12 -75 -12 -232 0 -158 -4 -228 -13 -246 -16 -31 -61 -39 -88 -14 -18 16 -19 33 -19 254 0 217 -2 238 -18 253 -24 22 -45 21 -67 -2 -20 -23 -49 -224 -60 -417 -6 -96 -4 -131 10 -184 30 -115 92 -193 191 -239 54 -26 52 16 23 -493 -11 -205 -21 -453 -22 -551 l-2 -178 42 -40 c38 -35 48 -39 94 -39 64 0 110 26 134 77 21 45 19 142 -20 718 -14 204 -25 397 -25 431 l0 61 42 19 c55 25 129 98 155 155 32 67 46 161 38 254 -13 171 -47 401 -61 423 -18 28 -47 28 -74 0 -19 -21 -20 -34 -20 -258 0 -254 -1 -260 -52 -260 -50 0 -55 22 -61 278 -4 191 -8 237 -21 251 -19 21 -56 24 -80 5z"/> <path d="M3155 4090 c-213 -33 -401 -133 -562 -296 l-93 -94 0 -53 c0 -119 -51 -237 -136 -316 -50 -47 -52 -51 -59 -116 -12 -111 0 -310 25 -400 61 -223 200 -437 367 -564 91 -70 268 -156 373 -181 556 -137 1115 218 1236 785 38 178 28 350 -33 538 l-34 108 -106 -104 -105 -104 17 -98 c45 -248 -40 -495 -232 -676 -89 -84 -165 -130 -284 -171 -89 -31 -101 -33 -239 -33 -123 0 -150 3 -173 18 -28 18 -37 60 -16 73 6 3 52 1 103 -6 335 -46 662 182 741 517 17 72 19 282 2 299 -7 8 -17 -1 -386 -356 -128 -124 -241 -228 -250 -232 -26 -11 -84 -8 -107 5 -12 7 -117 95 -233 195 -211 184 -211 184 -211 225 0 37 6 47 60 99 88 86 95 85 267 -53 76 -61 148 -116 160 -121 18 -9 33 0 115 69 135 114 291 240 383 310 104 78 110 85 94 115 -18 34 -118 136 -164 168 -129 89 -214 115 -375 115 -73 0 -139 -5 -158 -12 -29 -11 -35 -10 -53 8 -28 28 -21 51 26 74 55 28 278 28 374 1 152 -42 311 -148 402 -268 24 -32 45 -58 47 -58 2 0 48 36 103 80 l99 81 -15 30 c-21 39 -146 164 -219 218 -114 85 -278 153 -430 180 -67 12 -245 13 -321 1z m-234 -380 c31 -17 23 -35 -50 -99 -38 -34 -86 -84 -107 -111 -40 -52 -70 -64 -94 -35 -11 13 -9 23 5 56 29 64 177 199 218 199 5 0 17 -5 28 -10z m-44 -1186 c77 -58 89 -84 51 -108 -35 -22 -160 70 -160 118 0 24 14 45 31 46 2 0 38 -25 78 -56z"/> </g> </svg>